<svg xmlns="http://www.w3.org/2000/svg" width="56" height="47" viewBox="0 0 56 47">
  <metadata><?xpacket begin="﻿" id="W5M0MpCehiHzreSzNTczkc9d"?>
<x:xmpmeta xmlns:x="adobe:ns:meta/" x:xmptk="Adobe XMP Core 5.6-c138 79.159824, 2016/09/14-01:09:01        ">
   <rdf:RDF xmlns:rdf="http://www.w3.org/1999/02/22-rdf-syntax-ns#">
      <rdf:Description rdf:about=""/>
   </rdf:RDF>
</x:xmpmeta>
                                                                                                    
                                                                                                    
                                                                                                    
                                                                                                    
                                                                                                    
                                                                                                    
                                                                                                    
                                                                                                    
                                                                                                    
                                                                                                    
                                                                                                    
                                                                                                    
                                                                                                    
                                                                                                    
                                                                                                    
                                                                                                    
                                                                                                    
                                                                                                    
                                                                                                    
                                                                                                    
                           
<?xpacket end="w"?></metadata>
<defs>
    <style>
      .cls-1 {
        fill: #00e1ff;
        fill-rule: evenodd;
      }
    </style>
  </defs>
  <path id="Icon" class="cls-1" d="M519,983H498v-2h22v2h-1Zm14-9H485a3.875,3.875,0,0,1-4-4V940a3.875,3.875,0,0,1,4-4h48a3.874,3.874,0,0,1,4,4v30a4.017,4.017,0,0,1-4.069,4.1h0Zm-47.934-36.123A2.38,2.38,0,0,0,483,940v30a2.193,2.193,0,0,0,2,2h48a2.193,2.193,0,0,0,2-2V940a2.379,2.379,0,0,0-2.066-2.123H485.066Z" transform="translate(-481 -936)"/>
</svg>
