<svg xmlns="http://www.w3.org/2000/svg" width="49.876" height="48.75" viewBox="0 0 49.876 48.75">
  <metadata><?xpacket begin="﻿" id="W5M0MpCehiHzreSzNTczkc9d"?>
<x:xmpmeta xmlns:x="adobe:ns:meta/" x:xmptk="Adobe XMP Core 5.6-c138 79.159824, 2016/09/14-01:09:01        ">
   <rdf:RDF xmlns:rdf="http://www.w3.org/1999/02/22-rdf-syntax-ns#">
      <rdf:Description rdf:about=""/>
   </rdf:RDF>
</x:xmpmeta>
                                                                                                    
                                                                                                    
                                                                                                    
                                                                                                    
                                                                                                    
                                                                                                    
                                                                                                    
                                                                                                    
                                                                                                    
                                                                                                    
                                                                                                    
                                                                                                    
                                                                                                    
                                                                                                    
                                                                                                    
                                                                                                    
                                                                                                    
                                                                                                    
                                                                                                    
                                                                                                    
                           
<?xpacket end="w"?></metadata>
<defs>
    <style>
      .cls-1 {
        fill: #00e1ff;
        fill-rule: evenodd;
      }
    </style>
  </defs>
  <path id="Icon" class="cls-1" d="M835.688,970.317l-11.183-11.183-1.527,1.527,11.183,11.183a0.367,0.367,0,0,1,0,.51l-8.27,8.268a0.346,0.346,0,0,1-.255.105,0.343,0.343,0,0,1-.254-0.105l-4.6-4.6,2.885-2.885-1.623-1.623-2.885,2.884L814.2,969.44l-1.528,1.527,11.184,11.184a2.518,2.518,0,0,0,1.781.735h0.006a2.519,2.519,0,0,0,1.776-.735l8.27-8.271A2.524,2.524,0,0,0,835.688,970.317Zm-37.395-13.728,1.527-1.527-3.424-3.425,2.885-2.886-1.624-1.622-2.885,2.885-4.606-4.605a0.361,0.361,0,0,1-.1-0.255,0.357,0.357,0,0,1,.1-0.254l8.271-8.27a0.363,0.363,0,0,1,.509,0l9.654,9.652,1.527-1.526-9.654-9.654a2.522,2.522,0,0,0-3.563,0l-8.27,8.268a2.524,2.524,0,0,0,0,3.563ZM835.149,944.9a2.525,2.525,0,0,0-.737-1.782l-8.27-8.27a2.524,2.524,0,0,0-3.563,0l-34.225,34.226h0a2.5,2.5,0,0,0-.734,1.706,1.354,1.354,0,0,0-.333.355,2.136,2.136,0,0,0-.334,1.107l-0.376,8.067h0c0,0.045,0,.084,0,0.117a2.347,2.347,0,0,0,2.36,2.369h0.007c0.046,0,.093,0,0.144,0v0l0,0,7.94-.467a2.142,2.142,0,0,0,1.107-.351,1.349,1.349,0,0,0,.348-0.333,2.514,2.514,0,0,0,1.7-.733l34.225-34.225A2.524,2.524,0,0,0,835.149,944.9Zm-46.182,35.734h0l-0.024,0a0.185,0.185,0,0,1-.207-0.21h0v-0.009l0.329-7.071,3.424,3.425,3.453,3.453Zm43.918-35.48L798.66,979.381a0.366,0.366,0,0,1-.509,0l-8.27-8.27a0.365,0.365,0,0,1,0-.51l34.226-34.224a0.346,0.346,0,0,1,.254-0.1,0.352,0.352,0,0,1,.254.1l8.27,8.269A0.363,0.363,0,0,1,832.885,945.155Z" transform="translate(-786.562 -934.125)"/>
</svg>
