<svg xmlns="http://www.w3.org/2000/svg" width="58.06" height="58.062" viewBox="0 0 58.06 58.062">
  <metadata><?xpacket begin="﻿" id="W5M0MpCehiHzreSzNTczkc9d"?>
<x:xmpmeta xmlns:x="adobe:ns:meta/" x:xmptk="Adobe XMP Core 5.6-c138 79.159824, 2016/09/14-01:09:01        ">
   <rdf:RDF xmlns:rdf="http://www.w3.org/1999/02/22-rdf-syntax-ns#">
      <rdf:Description rdf:about=""/>
   </rdf:RDF>
</x:xmpmeta>
                                                                                                    
                                                                                                    
                                                                                                    
                                                                                                    
                                                                                                    
                                                                                                    
                                                                                                    
                                                                                                    
                                                                                                    
                                                                                                    
                                                                                                    
                                                                                                    
                                                                                                    
                                                                                                    
                                                                                                    
                                                                                                    
                                                                                                    
                                                                                                    
                                                                                                    
                                                                                                    
                           
<?xpacket end="w"?></metadata>
<defs>
    <style>
      .cls-1 {
        fill: #00e1ff;
        fill-rule: evenodd;
      }
    </style>
  </defs>
  <path id="Icon" class="cls-1" d="M1135.8,965.478a2.93,2.93,0,0,0,2.24-2.745v-6.466c0-1.259-.21-2.332-0.47-2.384l-2.71-.551-1.95-.4a3.916,3.916,0,0,1-2.66-1.588,6.4,6.4,0,0,1,.29-4.1l1.64-2.469a2.936,2.936,0,0,0-.36-3.527l-4.57-4.572a2.932,2.932,0,0,0-3.53-.355l-2.51,1.662a3.9,3.9,0,0,1-2.97.772,6.39,6.39,0,0,1-2.66-3.1l-0.6-2.958a2.931,2.931,0,0,0-2.75-2.243h-6.46a2.931,2.931,0,0,0-2.75,2.243l-0.61,2.993a3.926,3.926,0,0,1-1.55,2.652,6.306,6.306,0,0,1-4.04-.329l-2.54-1.69a2.929,2.929,0,0,0-3.53.35l-4.57,4.574a2.917,2.917,0,0,0-.35,3.525l1.69,2.543a3.906,3.906,0,0,1,.77,2.968,6.405,6.405,0,0,1-3.1,2.637l-2.99.6a2.922,2.922,0,0,0-2.24,2.74v6.471a2.921,2.921,0,0,0,2.24,2.74l2.95,0.594a3.89,3.89,0,0,1,2.66,1.572,6.372,6.372,0,0,1-.32,4.082l-1.66,2.5a2.916,2.916,0,0,0,.35,3.524l4.57,4.575a2.929,2.929,0,0,0,3.53.351l2.46-1.635a3.853,3.853,0,0,1,3-.756c0.6,0.281,2.46,1.9,2.7,3.134l0.58,2.881a2.931,2.931,0,0,0,2.75,2.244h6.46a2.931,2.931,0,0,0,2.75-2.244l0.57-2.846a3.9,3.9,0,0,1,1.6-2.668c0.64-.233,3.1-0.409,4.15.286l2.42,1.607a2.931,2.931,0,0,0,3.53-.356l4.57-4.572a2.935,2.935,0,0,0,.36-3.526l-1.61-2.427a3.869,3.869,0,0,1-.75-3.01c0.28-.607,1.89-2.477,3.13-2.728Zm-8.52,5.592c0.39,0.589,1.26,1.9,1.93,2.914a2.882,2.882,0,0,1-.4,3.462l-1.86,1.864a2.878,2.878,0,0,1-3.46.4c-1.02-.671-2.33-1.539-2.92-1.929a2.882,2.882,0,0,0-2.64.158l-0.82.357c-0.19.081-.38,0.155-0.57,0.231l-0.83.326a2.878,2.878,0,0,0-1.98,1.75c-0.14.693-.45,2.233-0.69,3.426a2.867,2.867,0,0,1-2.72,2.17h-2.64a2.869,2.869,0,0,1-2.72-2.179c-0.24-1.2-.56-2.745-0.7-3.437a2.9,2.9,0,0,0-1.98-1.766l-0.83-.332c-0.18-.073-0.36-0.146-0.54-0.224l-0.82-.359a2.865,2.865,0,0,0-2.63-.16c-0.58.39-1.9,1.267-2.93,1.948a2.888,2.888,0,0,1-3.48-.38l-1.86-1.861a2.893,2.893,0,0,1-.37-3.5c0.69-1.033,1.57-2.358,1.96-2.946a2.9,2.9,0,0,0-.15-2.639l-0.36-.829c-0.06-.159-0.13-0.319-0.19-0.478l-0.33-.828a2.875,2.875,0,0,0-1.75-1.982l-3.48-.7a2.907,2.907,0,0,1-2.22-2.736v-2.632a2.921,2.921,0,0,1,2.23-2.739c1.23-.246,2.8-0.562,3.49-0.7a2.916,2.916,0,0,0,1.77-1.984l0.33-.828c0.06-.143.12-0.288,0.18-0.43l0.35-.827a2.864,2.864,0,0,0,.16-2.634c-0.39-.587-1.28-1.924-1.97-2.969a2.909,2.909,0,0,1,.35-3.519l1.86-1.862a2.919,2.919,0,0,1,3.52-.355c1.05,0.7,2.38,1.584,2.97,1.974a2.86,2.86,0,0,0,2.63-.156l0.83-.356c0.14-.057.27-0.111,0.41-0.167l0.83-.335a2.933,2.933,0,0,0,1.99-1.772c0.14-.694.46-2.265,0.71-3.491a2.916,2.916,0,0,1,2.74-2.23h2.64a2.913,2.913,0,0,1,2.74,2.221c0.25,1.222.57,2.787,0.71,3.479a2.888,2.888,0,0,0,1.98,1.757l0.83,0.329c0.15,0.058.29,0.113,0.44,0.174l0.83,0.353a2.881,2.881,0,0,0,2.64.157c0.59-.391,1.92-1.27,2.96-1.955a2.906,2.906,0,0,1,3.5.373l1.86,1.863a2.9,2.9,0,0,1,.38,3.486c-0.68,1.027-1.55,2.348-1.94,2.936a2.862,2.862,0,0,0,.16,2.633l0.36,0.825,0.21,0.5,0.33,0.83a2.929,2.929,0,0,0,1.77,1.989l3.44,0.7a2.887,2.887,0,0,1,2.18,2.733v2.636a2.884,2.884,0,0,1-2.17,2.73c-1.2.243-2.74,0.557-3.43,0.7a2.878,2.878,0,0,0-1.75,1.985l-0.33.827c-0.07.184-.15,0.367-0.22,0.547l-0.36.829A2.868,2.868,0,0,0,1127.28,971.07Zm-18.23-20.991a9.469,9.469,0,1,0,9.47,9.469A9.471,9.471,0,0,0,1109.05,950.079Zm0,16.6a7.126,7.126,0,1,1,7.13-7.127A7.138,7.138,0,0,1,1109.05,966.675Z" transform="translate(-1079.97 -930.469)"/>
</svg>
