<svg xmlns="http://www.w3.org/2000/svg" width="60" height="49.781" viewBox="0 0 60 49.781">
  <metadata><?xpacket begin="﻿" id="W5M0MpCehiHzreSzNTczkc9d"?>
<x:xmpmeta xmlns:x="adobe:ns:meta/" x:xmptk="Adobe XMP Core 5.6-c138 79.159824, 2016/09/14-01:09:01        ">
   <rdf:RDF xmlns:rdf="http://www.w3.org/1999/02/22-rdf-syntax-ns#">
      <rdf:Description rdf:about=""/>
   </rdf:RDF>
</x:xmpmeta>
                                                                                                    
                                                                                                    
                                                                                                    
                                                                                                    
                                                                                                    
                                                                                                    
                                                                                                    
                                                                                                    
                                                                                                    
                                                                                                    
                                                                                                    
                                                                                                    
                                                                                                    
                                                                                                    
                                                                                                    
                                                                                                    
                                                                                                    
                                                                                                    
                                                                                                    
                                                                                                    
                           
<?xpacket end="w"?></metadata>
<defs>
    <style>
      .cls-1 {
        fill: #00e1ff;
        fill-rule: evenodd;
      }
    </style>
  </defs>
  <path id="Icon" class="cls-1" d="M1432.07,984.79h-44.54A7.752,7.752,0,0,1,1380,977V951c0.01-4.17,3.83-6.993,8-7h4l0.96-.214,0.3-.3,6.05-6.223c1.65-1.615,4.36-2.2,6.69-2.26h8a9.162,9.162,0,0,1,6.31,2.276l6.03,6.207,0.3,0.3L1427,944h5c4.17,0.007,7.99,2.829,8,7v26a8.1,8.1,0,0,1-7.93,7.79h0ZM1388,946c-3.09.006-6.08,2.271-6.09,5.363v25.848A6.215,6.215,0,0,0,1388,983h44a6.321,6.321,0,0,0,6-6V951c-0.01-3.094-2.91-4.994-6-5h-7l-3.45-3.915-3.22-3.273A6.63,6.63,0,0,0,1414,937h-8a7.229,7.229,0,0,0-4.71,1.855l-3.18,3.229L1394,946h-6l-0.47-.254Zm21.8,32.605a14.152,14.152,0,1,1,14.15-14.151,14.171,14.171,0,0,1-14.15,14.151h0Zm0-26.394a12.241,12.241,0,1,0,12.24,12.245,12.283,12.283,0,0,0-12.24-12.245h0Z" transform="translate(-1380 -935)"/>
</svg>
