<svg xmlns="http://www.w3.org/2000/svg" width="65.125" height="57" viewBox="0 0 65.125 57">
  <metadata><?xpacket begin="﻿" id="W5M0MpCehiHzreSzNTczkc9d"?>
<x:xmpmeta xmlns:x="adobe:ns:meta/" x:xmptk="Adobe XMP Core 5.6-c138 79.159824, 2016/09/14-01:09:01        ">
   <rdf:RDF xmlns:rdf="http://www.w3.org/1999/02/22-rdf-syntax-ns#">
      <rdf:Description rdf:about=""/>
   </rdf:RDF>
</x:xmpmeta>
                                                                                                    
                                                                                                    
                                                                                                    
                                                                                                    
                                                                                                    
                                                                                                    
                                                                                                    
                                                                                                    
                                                                                                    
                                                                                                    
                                                                                                    
                                                                                                    
                                                                                                    
                                                                                                    
                                                                                                    
                                                                                                    
                                                                                                    
                                                                                                    
                                                                                                    
                                                                                                    
                           
<?xpacket end="w"?></metadata>
<defs>
    <style>
      .cls-1 {
        fill: #00e1ff;
        fill-rule: evenodd;
      }
    </style>
  </defs>
  <path id="Composite_Path" data-name="Composite Path" class="cls-1" d="M542,5108H477l-0.131-27.55v-18.21A1.931,1.931,0,0,1,479,5060h16l0.754-.38h0.2v-5.91A3.067,3.067,0,0,1,499,5051h22c1.461,0,1.993,1.54,2,3v5l0.269,0.42v0.2h0.2L524,5060h16c1.463,0.01,1.993.54,2,2v46h0Zm-62.711-24.23v0.2L479,5084v22l0.289-.14v0.2h60.646v-22.29h-0.2L539,5084H480l-0.511-.23h-0.2Zm0-21.73v0.2L479,5062v18l0.289,1.15v0.2h0.2L479,5082h61l-0.266-.65h0.2v-19.31H479.289Zm19.088-8.53v0.2L498,5054v5l0.377,0.42v0.2h0.2L499,5060h21l0.648-.38h0.2v-0.2L521,5059v-5l-0.151-.29v-0.2h-0.2L520,5053H499l-0.423.51h-0.2Z" transform="translate(-476.875 -5051)"/>
</svg>
