<svg xmlns="http://www.w3.org/2000/svg" width="34.031" height="68.94" viewBox="0 0 34.031 68.94">
  <metadata><?xpacket begin="﻿" id="W5M0MpCehiHzreSzNTczkc9d"?>
<x:xmpmeta xmlns:x="adobe:ns:meta/" x:xmptk="Adobe XMP Core 5.6-c138 79.159824, 2016/09/14-01:09:01        ">
   <rdf:RDF xmlns:rdf="http://www.w3.org/1999/02/22-rdf-syntax-ns#">
      <rdf:Description rdf:about=""/>
   </rdf:RDF>
</x:xmpmeta>
                                                                                                    
                                                                                                    
                                                                                                    
                                                                                                    
                                                                                                    
                                                                                                    
                                                                                                    
                                                                                                    
                                                                                                    
                                                                                                    
                                                                                                    
                                                                                                    
                                                                                                    
                                                                                                    
                                                                                                    
                                                                                                    
                                                                                                    
                                                                                                    
                                                                                                    
                                                                                                    
                           
<?xpacket end="w"?></metadata>
<defs>
    <style>
      .cls-1 {
        fill: #00e1ff;
        fill-rule: evenodd;
      }
    </style>
  </defs>
  <path id="Composite_Path" data-name="Composite Path" class="cls-1" d="M810.852,5108.49a20.289,20.289,0,0,1-12.019-4c-2.318-1.77-4.765-4.94-4.833-8.49v-31a6.774,6.774,0,0,1,6.705-7.02h8.945l-0.177-.63a6.645,6.645,0,0,0-.676-1.57,11.424,11.424,0,0,0-5.916-4.46,6.786,6.786,0,0,1-2.7-1.96c-0.942-1.06-2.519-3.49-2.5-7.81l0-.38a6.833,6.833,0,0,1,.048-1.03,1.136,1.136,0,0,1,1.248-.58,1.294,1.294,0,0,1,1.248.49c-0.041.52-.063,1.03-0.063,1.5a9.378,9.378,0,0,0,1.721,5.98,4.678,4.678,0,0,0,1.811,1.45c4.258,1.62,6.281,3.9,7.241,5.54a8.9,8.9,0,0,1,1.126,3.04l0.067,0.42H821a7.075,7.075,0,0,1,7.04,7.04v31.31c-0.07,3.54-2.85,6.4-5.171,8.16a20.271,20.271,0,0,1-12.013,4h0Zm-14.707-32.9L796,5076v20c-0.067,1.49,1.492,4.44,4.324,6.51a17.876,17.876,0,0,0,10.509,3.5h0.036a17.912,17.912,0,0,0,10.514-3.5c2.827-2.07,4.685-5,4.617-6.51v-20l-0.445-.41L825,5075H797l-0.855.59h0Zm16-15.13v12.65L813,5073h12l0.555,0.11L826,5073v-8a5.362,5.362,0,0,0-5-5h-8l-0.86.46h0Zm-11.435,0A4.69,4.69,0,0,0,796,5065v7l0.145,1.11L797,5073h12l0.662,0.11v-12.65L809,5060h-8Z" transform="translate(-794 -5039.56)"/>
</svg>
