<svg xmlns="http://www.w3.org/2000/svg" width="59" height="61.19" viewBox="0 0 59 61.19">
  <metadata><?xpacket begin="﻿" id="W5M0MpCehiHzreSzNTczkc9d"?>
<x:xmpmeta xmlns:x="adobe:ns:meta/" x:xmptk="Adobe XMP Core 5.6-c138 79.159824, 2016/09/14-01:09:01        ">
   <rdf:RDF xmlns:rdf="http://www.w3.org/1999/02/22-rdf-syntax-ns#">
      <rdf:Description rdf:about=""/>
   </rdf:RDF>
</x:xmpmeta>
                                                                                                    
                                                                                                    
                                                                                                    
                                                                                                    
                                                                                                    
                                                                                                    
                                                                                                    
                                                                                                    
                                                                                                    
                                                                                                    
                                                                                                    
                                                                                                    
                                                                                                    
                                                                                                    
                                                                                                    
                                                                                                    
                                                                                                    
                                                                                                    
                                                                                                    
                                                                                                    
                           
<?xpacket end="w"?></metadata>
<defs>
    <style>
      .cls-1 {
        fill: #00e1ff;
        fill-rule: evenodd;
      }
    </style>
  </defs>
  <path id="Composite_Path" data-name="Composite Path" class="cls-1" d="M1138.61,5069.48a2.375,2.375,0,0,0-2.24-1.58l-1.37.1v-4l-15.31-15.83-0.24-.23-0.13-.14-0.32.2h-36v20l-0.47-.1a2.392,2.392,0,0,0-2.39,2.34l-0.06.51-0.08.25v35a2.68,2.68,0,0,0,1.33,2.16,1.594,1.594,0,0,0,.32.16,2.907,2.907,0,0,0,.39.12c0.16,0.03.8,0.56,0.96,0.56h53a3.6,3.6,0,0,0,3-3v-36A1.516,1.516,0,0,0,1138.61,5069.48ZM1120,5063v-12l12,12h-12Zm-38,9,1.67,1.87,0.43,0.35,0.57,0.47,0.77,0.64v-0.01l15.59,12.86L1082,5103v-31Zm54.82,34.1a1.582,1.582,0,0,1-.82.9h-53a1.723,1.723,0,0,1-.92-0.9v-0.12l20.48-16.54,3.98,3.28h0l0.36,0.3c0.01,0.01.02,0.01,0.03,0.02l0.33,0.27,0.02-.02a4.2,4.2,0,0,0,2.24.63,4.088,4.088,0,0,0,2.62-.9l4.22-3.48,20.46,16.44v0.12ZM1133,5065v8l-16.95,14.28-0.79.66-4.35,3.58a2.212,2.212,0,0,1-1.39.46,2.183,2.183,0,0,1-1.38-.46l-4.48-3.69-0.79-.65-16.36-13.49L1085,5073v-23h33v15h15Zm4,38-19.12-14.72,16.76-13.82,0.59-.49,0.89-.74,0.88-.23v30Zm-1.6-31.69v-1.47h0.97a0.473,0.473,0,0,1,.43.32Zm-51.9-1.47v1.37l-1.37-1.12a0.457,0.457,0,0,1,.4-0.25h0.97Zm53.79,36.27h0Z" transform="translate(-1080 -5047.81)"/>
</svg>
