<svg xmlns="http://www.w3.org/2000/svg" width="61.09" height="55.94" viewBox="0 0 61.09 55.94">
  <metadata><?xpacket begin="﻿" id="W5M0MpCehiHzreSzNTczkc9d"?>
<x:xmpmeta xmlns:x="adobe:ns:meta/" x:xmptk="Adobe XMP Core 5.6-c138 79.159824, 2016/09/14-01:09:01        ">
   <rdf:RDF xmlns:rdf="http://www.w3.org/1999/02/22-rdf-syntax-ns#">
      <rdf:Description rdf:about=""/>
   </rdf:RDF>
</x:xmpmeta>
                                                                                                    
                                                                                                    
                                                                                                    
                                                                                                    
                                                                                                    
                                                                                                    
                                                                                                    
                                                                                                    
                                                                                                    
                                                                                                    
                                                                                                    
                                                                                                    
                                                                                                    
                                                                                                    
                                                                                                    
                                                                                                    
                                                                                                    
                                                                                                    
                                                                                                    
                                                                                                    
                           
<?xpacket end="w"?></metadata>
<defs>
    <style>
      .cls-1 {
        fill: #00e1ff;
        fill-rule: evenodd;
      }
    </style>
  </defs>
  <path class="cls-1" d="M1435.39,5052.52l-0.39.48h-53c-2.03,0-4.08,1.18-4.08,3.21v35.82A4.3,4.3,0,0,0,1382,5096h4l-0.06,9.92a2.973,2.973,0,0,0,.53,1.78,2.018,2.018,0,0,0,1.59.78h0.02a2.976,2.976,0,0,0,1.59-.52L1409,5096h26a4.246,4.246,0,0,0,4-4v-36A3.458,3.458,0,0,0,1435.39,5052.52Zm-46.69,53.93a1.276,1.276,0,0,1-.62.24c-0.2-.06-0.24.1-0.35-0.79l0.27-9.9h17ZM1437,5092a1.7,1.7,0,0,1-1.61,1.92H1381.6a1.7,1.7,0,0,1-1.6-1.92v-36c0-1.04.97-1,2-1h53c1.04,0,2-.04,2,1v36Zm-41.24-21.96a3.92,3.92,0,1,0,3.92,3.92A3.911,3.911,0,0,0,1395.76,5070.04Zm0.01,6.05a2.13,2.13,0,1,1,2.12-2.13A2.138,2.138,0,0,1,1395.77,5076.09Zm12.76-6.05a3.92,3.92,0,1,0,3.92,3.92A3.914,3.914,0,0,0,1408.53,5070.04Zm0,6.05a2.13,2.13,0,1,1,2.13-2.13A2.132,2.132,0,0,1,1408.53,5076.09Zm12.73-6.05h0a3.92,3.92,0,1,0,3.92,3.92A3.92,3.92,0,0,0,1421.26,5070.04Zm2.13,4a2.17,2.17,0,1,1,0-.08v0.08Z" transform="translate(-1377.91 -5052.53)"/>
</svg>
