<svg id="Группа_1" data-name="Группа 1" xmlns="http://www.w3.org/2000/svg" width="35.25" height="35.25" viewBox="0 0 35.25 35.25">
  <metadata><?xpacket begin="﻿" id="W5M0MpCehiHzreSzNTczkc9d"?>
<x:xmpmeta xmlns:x="adobe:ns:meta/" x:xmptk="Adobe XMP Core 5.6-c138 79.159824, 2016/09/14-01:09:01        ">
   <rdf:RDF xmlns:rdf="http://www.w3.org/1999/02/22-rdf-syntax-ns#">
      <rdf:Description rdf:about=""/>
   </rdf:RDF>
</x:xmpmeta>
                                                                                                    
                                                                                                    
                                                                                                    
                                                                                                    
                                                                                                    
                                                                                                    
                                                                                                    
                                                                                                    
                                                                                                    
                                                                                                    
                                                                                                    
                                                                                                    
                                                                                                    
                                                                                                    
                                                                                                    
                                                                                                    
                                                                                                    
                                                                                                    
                                                                                                    
                                                                                                    
                           
<?xpacket end="w"?></metadata>
<defs>
    <style>
      .cls-1 {
        fill: #00e1ff;
      }

      .cls-1, .cls-2 {
        fill-rule: evenodd;
      }

      .cls-2 {
        fill: #fff;
      }
    </style>
  </defs>
  <path id="Composite_Path" data-name="Composite Path" class="cls-1" d="M941.25,6667.89a17.624,17.624,0,0,1,17.624-17.62h0a17.624,17.624,0,0,1,17.625,17.62h0a17.626,17.626,0,0,1-17.625,17.63h0a17.626,17.626,0,0,1-17.624-17.63h0Zm2,0a15.653,15.653,0,0,0,15.626,15.63h0a15.649,15.649,0,0,0,15.624-15.63h0a15.636,15.636,0,0,0-15.624-15.62h0a15.638,15.638,0,0,0-15.626,15.62h0Z" transform="translate(-941.25 -6650.28)"/>
  <path id="Path" class="cls-1" d="M971.375,6667.89a12.5,12.5,0,1,1-12.5-12.5A12.5,12.5,0,0,1,971.375,6667.89Z" transform="translate(-941.25 -6650.28)"/>
  <path id="Composite_Path-2" data-name="Composite Path" class="cls-2" d="M954.769,6663.89a3.656,3.656,0,0,1,2.07.59,2.165,2.165,0,0,1,.88,1.93v5.56h-2.093v-5.32a0.8,0.8,0,0,0-.238-0.69,1.066,1.066,0,0,0-.619-0.17v-1.9Zm5.232,0a3.652,3.652,0,0,1,2.068.59,2.163,2.163,0,0,1,.88,1.93v5.56h-2.092v-5.32a0.8,0.8,0,0,0-.238-0.69,1.065,1.065,0,0,0-.618-0.17v-1.9Z" transform="translate(-941.25 -6650.28)"/>
</svg>
